<?xml version="1.0" standalone="no"?>
<!DOCTYPE svg PUBLIC "-//W3C//DTD SVG 20010904//EN"
 "http://www.w3.org/TR/2001/REC-SVG-20010904/DTD/svg10.dtd">
<svg version="1.0" xmlns="http://www.w3.org/2000/svg"
 width="1200.000000pt" height="1179.000000pt" viewBox="0 0 1200.000000 1179.000000"
 preserveAspectRatio="xMidYMid meet">

<g transform="translate(0.000000,1179.000000) scale(0.100000,-0.100000)"
fill="#000000" stroke="none">
<path d="M0 5895 l0 -5895 6000 0 6000 0 0 5895 0 5895 -6000 0 -6000 0 0
-5895z m7300 3805 l0 -1820 -1801 0 c-1711 0 -1801 -1 -1795 -17 6 -16 1596
-3053 1743 -3330 l54 -101 -63 -36 c-99 -55 -315 -151 -456 -202 -251 -91
-543 -159 -817 -190 -180 -20 -537 -23 -705 -5 -616 64 -1149 257 -1661 602
-311 209 -649 541 -875 859 -303 428 -512 925 -599 1430 -51 293 -48 170 -52
2478 l-4 2152 3516 0 3515 0 0 -1820z m4237 -2099 c-4 -17 -3641 -6965 -3677
-7024 l-16 -28 -1847 3524 c-1016 1938 -1847 3529 -1847 3535 0 9 887 12 3696
12 3603 0 3696 0 3691 -19z"/>
</g>
</svg>
