<svg xmlns="http://www.w3.org/2000/svg" shape-rendering="geometricPrecision" image-rendering="optimizeQuality" fill-rule="evenodd" viewBox="161.1 447.6 1597.7 184.9" height="36" width="320"><defs><clipPath id="a"><path d="M161 449h187v183H161V449z" /></clipPath></defs><path fill="red" fill-rule="nonzero" d="M419 517h19v67c1 4 3 7 6 9s7 4 12 4c6 0 10-1 12-4s5-5 5-8l1-16v-52h19v50l-1 24c-1 5-3 8-6 11-3 4-6 6-11 8s-11 3-18 3c-9 0-16-1-20-3s-9-5-11-8l-6-11-1-24v-50zm158 94h-18v-34l-1-15-4-5-6-1c-3 0-6 0-9 2l-5 7-1 15v31h-18v-68h17v10c6-7 13-11 22-11 4 0 8 0 11 2 3 1 6 3 7 5l4 8 1 12v42zm20-77v-17h18v17h-18zm0 77v-68h18v68h-18zm58 0-28-68h19l13 35 4 11 2-5 1-6 13-35h19l-27 68h-16zm95-21 18 3c-2 6-6 11-11 15-5 3-11 5-18 5-12 0-21-4-26-12-5-6-7-14-7-23 0-11 3-20 9-27 6-6 13-9 22-9 10 0 18 3 24 10 6 6 8 17 8 30h-45c0 6 2 10 5 13 2 3 6 4 10 4 3 0 5 0 7-2 2-1 3-4 4-7zm1-19c0-5-1-9-4-11-2-3-5-4-9-4s-7 1-10 4-3 7-3 11h26zm52 40h-18v-68h17v10c3-5 5-8 8-9l7-2c5 0 8 1 12 3l-5 16-9-3-6 2c-2 1-3 4-4 7l-2 23v21zm30-19 18-3c1 4 2 6 5 8 2 2 5 3 9 3 5 0 9-1 11-3 1-1 2-2 2-5l-1-3-6-2c-15-3-24-6-28-9-5-4-8-9-8-15s3-11 7-15 12-6 22-6c9 0 16 1 21 4 4 3 7 8 9 14l-17 3c-1-3-2-5-4-6l-9-2c-5 0-8 0-10 2l-2 3 2 4 17 5c10 3 16 5 20 8 3 3 5 7 5 13s-2 12-7 16c-6 5-13 7-24 7-9 0-16-2-22-6-5-4-8-9-10-15zm81-58v-17h18v17h-18zm0 77v-68h18v68h-18zm101 0h-16v-10c-3 4-6 7-10 9l-12 3c-8 0-14-3-20-10-5-6-8-15-8-26s3-20 8-26 12-9 21-9c7 0 14 3 19 9v-34h18v94zm-48-35c0 7 1 12 3 16a14 14 0 0 0 23 1c3-3 4-8 4-15 0-8-1-14-4-17s-6-5-11-5c-4 0-8 1-10 5-3 3-5 8-5 15zm81-12-16-3c2-6 5-11 10-14s11-5 20-5c8 0 14 1 18 3l8 7c2 3 2 8 2 16v21l1 13 3 9h-18a67 67 0 0 1-2-7l-10 7c-4 2-7 2-11 2-7 0-13-2-17-6s-6-8-6-14c0-4 1-7 3-10s5-6 8-7l14-5 18-4v-2c0-3-1-6-3-7-2-2-5-2-10-2l-7 1-5 7zm25 15-11 2-10 4c-3 1-4 3-4 6 0 2 1 5 3 6s4 3 7 3c4 0 7-1 10-3l4-6 1-9v-3zm99 32h-16v-10c-3 4-6 7-10 9l-11 3c-8 0-15-3-21-10-5-6-8-15-8-26s3-20 8-26 12-9 21-9c7 0 14 3 19 9v-34h18v94zm-47-35c0 7 1 12 3 16a14 14 0 0 0 22 1c3-3 4-8 4-15 0-8-1-14-4-17s-6-5-10-5c-5 0-8 1-11 5-3 3-4 8-4 15zm166 35h-17v-10c-2 4-6 7-10 9-3 2-7 3-11 3-8 0-14-3-20-10-6-6-8-15-8-26s2-20 8-26 12-9 20-9 14 3 20 9v-34h18v94zm-48-35c0 7 1 12 3 16a14 14 0 0 0 23 1c3-3 4-8 4-15 0-8-1-14-4-17s-7-5-11-5-8 1-11 5c-3 3-4 8-4 15zm107 14 18 3c-2 6-6 11-11 15-5 3-11 5-18 5-12 0-21-4-27-12-4-6-6-14-6-23 0-11 3-20 8-27 6-6 14-9 23-9 10 0 18 3 24 10 5 6 8 17 8 30h-45c0 6 2 10 4 13 3 3 7 4 11 4 3 0 5 0 7-2 2-1 3-4 4-7zm1-19c0-5-1-9-4-11-2-3-6-4-9-4-4 0-7 1-10 4s-4 7-4 11h27zm35 40v-94h18v94h-18zm99 0-34-94h21l24 70 23-70h20l-34 94h-20zm72-47-17-3c2-6 5-11 10-14s11-5 20-5c8 0 14 1 18 3l8 7c2 3 2 8 2 16v21l1 13 3 9h-18a67 67 0 0 1-2-7l-10 7c-4 2-7 2-11 2-7 0-13-2-17-6s-6-8-6-14c0-4 1-7 3-10s5-6 8-7l14-5 18-4v-2c0-3-1-6-3-7-2-2-5-2-10-2l-7 1-4 7zm24 15-11 2-10 4c-2 1-4 3-4 6 0 2 1 5 3 6s4 3 7 3c4 0 7-1 10-3l4-6 1-9v-3zm37 32v-94h18v94h-18zm39 0v-94h18v94h-18zm78-21 18 3c-3 6-6 11-11 15-5 3-11 5-19 5-12 0-20-4-26-12-5-6-7-14-7-23 0-11 3-20 9-27 6-6 13-9 22-9 10 0 18 3 24 10 6 6 9 17 9 30h-45c0 6 1 10 4 13s6 4 10 4c3 0 5 0 7-2 2-1 4-4 5-7zm1-19c0-5-2-9-4-11-3-3-6-4-10-4s-7 1-9 4-4 7-4 11h27zM409 623h1350v6H409v-6z" /><g clip-path="url(#a)"><path fill="none" stroke="#2b2a29" stroke-width=".3" stroke-miterlimit="22.9" d="m161 449 187 183m0-183L161 632" /></g><path fill="red" d="M161 448h187v184H161z" /><g fill="#fefefe"><path d="M168 453h109v65c0 29-24 53-53 53h-5c-28 0-51-23-51-52v-66z" /><path stroke="red" stroke-width="1.9" stroke-miterlimit="22.9" d="m225 513 121 1-60 113z" /></g></svg>